<svg viewBox="0 0 800 800" xmlns="http://www.w3.org/2000/svg"><path d="M765.8813697227868,189.97307899180612 L732.3171907621811,215.7207084264371 M732.3171907621811,215.7207084264371 L697.5749895965081,240.90034484399365 M697.5749895965081,240.90034484399365 L661.6538685692876,265.50844987799314 M661.6538685692876,265.50844987799314 L624.5531045618201,289.5415452038694 M624.5531045618201,289.5415452038694 L586.2721469611078,312.9962340410275 M586.2721469611078,312.9962340410275 L546.8105917363193,335.86920551300784 M546.8105917363193,335.86920551300784 L506.16826564506175,358.1571906789626 M506.16826564506175,358.1571906789626 L464.3451383926746,379.85701190687917 M464.3451383926746,379.85701190687917 L421.34133932295197,400.96558872690866 M421.34133932295197,400.96558872690866 L377.15715823909204,421.47990931589663 M377.15715823909204,421.47990931589663 L331.79316760198515,441.396997005137 M331.79316760198515,441.396997005137 L285.24999873950117,460.7140178272866 M285.24999873950117,460.7140178272866 L237.52850992041078,479.4281908032575 M237.52850992041078,479.4281908032575 L188.62973292648758,497.5368200826938 M188.62973292648758,497.5368200826938 L138.55492508101213,515.037264530729 M138.55492508101213,515.037264530729 L101.17537226744571,527.454131320316 M101.17537226744571,527.454131320316 L63.16767495803833,539.5431530205926" stroke="black"  stroke-width="4"  fill="red"/>
<path d="M765.3300758656751,217.29543621636822 L733.8585982466893,238.96120518157312 M733.8585982466893,238.96120518157312 L701.3271521198056,260.6470648340887 M701.3271521198056,260.6470648340887 L667.7357630436526,282.3510215631171 M667.7357630436526,282.3510215631171 L633.0846215176794,304.0710609386174 M633.0846215176794,304.0710609386174 L597.3741818799595,325.8051531869618 M597.3741818799595,325.8051531869618 L560.6050289900062,347.551294572066 M560.6050289900062,347.551294572066 L522.7779943924663,369.30742232490763 M522.7779943924663,369.30742232490763 L487.8300262979243,388.89479516156257 M487.8300262979243,388.89479516156257 L455.6456639353974,406.52769092571134 M455.6456639353974,406.52769092571134 L422.7693516799709,424.163496916232 M422.7693516799709,424.163496916232 L389.20196399265944,441.8010922114977 M389.20196399265944,441.8010922114977 L354.9443312518097,459.43942372142556 M354.9443312518097,459.43942372142556 L319.99759444103626,477.0773102923148 M319.99759444103626,477.0773102923148 L284.36271493508116,494.7137206671531 M284.36271493508116,494.7137206671531 L248.04097041015234,512.3474989557637 M248.04097041015234,512.3474989557637 L211.03359142792007,529.9775566500703 M211.03359142792007,529.9775566500703 L173.34193920589368,547.602780730528 M173.34193920589368,547.602780730528 L134.96750717676468,565.2220376417515 M134.96750717676468,565.2220376417515 L99.25072413334499,581.3407482364989 M99.25072413334499,581.3407482364989 L62.96464141600143,597.4526511113163" stroke="black"  stroke-width="4"  fill="red"/>
<path d="M762.5731114888871,230.43686205347103 L729.9605575152196,256.2877189666152 M729.9605575152196,256.2877189666152 L696.1910586723237,281.74075417248935 M696.1910586723237,281.74075417248935 L661.2640672262094,306.7927447972294 M661.2640672262094,306.7927447972294 L625.1792281078064,331.4405189546154 M625.1792281078064,331.4405189546154 L587.936359081023,355.68095651460976 M587.936359081023,355.68095651460976 L549.5355187232311,379.51098530381853 M549.5355187232311,379.51098530381853 L509.9768837822714,402.9276105143301 M509.9768837822714,402.9276105143301 L469.2608519465944,425.9278874729539 M469.2608519465944,425.9278874729539 L427.38804525885894,448.5089181507077 M427.38804525885894,448.5089181507077 L384.3592488805648,470.66786625948225 M384.3592488805648,470.66786625948225 L340.17540316221886,492.4019910894833 M340.17540316221886,492.4019910894833 L294.83772347119157,513.7085730367056 M294.83772347119157,513.7085730367056 L248.34758106470068,534.584952936436 M248.34758106470068,534.584952936436 L200.70653779234044,555.0285703446792 M200.70653779234044,555.0285703446792 L151.91630745151156,575.0369249654125 M151.91630745151156,575.0369249654125 L106.91854102417972,592.7109088830695 M106.91854102417972,592.7109088830695 L60.98879405037917,610.0269210081938" stroke="black"  stroke-width="4"  fill="red"/>
<path d="M727.3583393904621,225.9309041199047 L664.9198178239144,273.1682884454882 M664.9198178239144,273.1682884454882 L600.7283266610216,318.34391265130193 M600.7283266610216,318.34391265130193 L534.7793520912385,361.44770870519983 M534.7793520912385,361.44770870519983 L467.0684771888728,402.4697734113141 M467.0684771888728,402.4697734113141 L397.5913824748438,441.4002862161286 M397.5913824748438,441.4002862161286 L326.34393031237147,478.22951464952564 M326.34393031237147,478.22951464952564 L253.32199409776388,512.9479045366307 M253.32199409776388,512.9479045366307 L178.52171578321156,545.5459172609108 M178.52171578321156,545.5459172609108 L107.09797087975045,574.0503470598758 M107.09797087975045,574.0503470598758 L34.11863027721324,600.6919297505281" stroke="black"  stroke-width="4"  fill="red"/></svg>