<svg viewBox="0 0 800 800" xmlns="http://www.w3.org/2000/svg"><path d="M790.860875198196,208.74948461591822 L690.1247005451775,262.2986385572693 M690.1247005451775,262.2986385572693 L616.0126560359691,303.32416938702306 M616.0126560359691,303.32416938702306 L558.9237424916208,334.6564297691357 M558.9237424916208,334.6564297691357 L514.8395759097344,358.185406584965 M514.8395759097344,358.185406584965 L477.079832931107,377.64354392414236 M477.079832931107,377.64354392414236 L444.80432097129267,393.6509356144502 M444.80432097129267,393.6509356144502 L415.06666528508106,407.8216561385673 M415.06666528508106,407.8216561385673 L387.7038553240112,420.3279925979282 M387.7038553240112,420.3279925979282 L362.56457266384285,431.3402235569474 M362.56457266384285,431.3402235569474 L336.9166561236046,442.0819685789389 M336.9166561236046,442.0819685789389 L313.38151407747057,451.4852059507034 M313.38151407747057,451.4852059507034 L291.82143258273027,459.70811083291505 M291.82143258273027,459.70811083291505 L269.8926829572617,467.679991228126 M269.8926829572617,467.679991228126 L247.58603793072155,475.3773668734083 M247.58603793072155,475.3773668734083 L227.17971117718372,482.0503755992137 M227.17971117718372,482.0503755992137 L208.54139106113738,487.83429322114455 M208.54139106113738,487.83429322114455 L189.64051563798037,493.39412222072053 M189.64051563798037,493.39412222072053 L170.47315708974773,498.71612460715824 M170.47315708974773,498.71612460715824 L151.03585321086086,503.7861382690411 M151.03585321086086,503.7861382690411 L131.32512426034998,508.58985133708825 M131.32512426034998,508.58985133708825 L113.34917327202544,512.6733466507237 M113.34917327202544,512.6733466507237 L103.03138829099532,514.8887246508456 M103.03138829099532,514.8887246508456 L92.64022087044304,517.0250188227453" stroke="black"  stroke-width="4"  fill="red"/>
<path d="M793.0230594663544,208.67631710525558 L746.6527671223163,240.93861720194803 M746.6527671223163,240.93861720194803 L700.9144843719197,272.31600186415767 M700.9144843719197,272.31600186415767 L629.2141483786388,320.03111384556337 M629.2141483786388,320.03111384556337 L569.9766802453076,357.4720314817637 M569.9766802453076,357.4720314817637 L534.0352916704414,379.0664541513909 M534.0352916704414,379.0664541513909 L493.7599845587142,402.09752255111493 M493.7599845587142,402.09752255111493 L455.4204364360286,422.76037961935106 M455.4204364360286,422.76037961935106 L423.5471826490764,438.92971310878056 M423.5471826490764,438.92971310878056 L394.1901584882384,452.9665550862703 M394.1901584882384,452.9665550862703 L364.1658024566555,466.4360881736561 M364.1658024566555,466.4360881736561 L336.5529628667958,478.00339845386657 M336.5529628667958,478.00339845386657 L311.2105555243512,487.9060013820242 M311.2105555243512,487.9060013820242 L285.39522227293116,497.27177010807475 M285.39522227293116,497.27177010807475 L261.75276430407996,505.1945382723633 M261.75276430407996,505.1945382723633 L240.141652716456,511.87675088596893 M240.141652716456,511.87675088596893 L218.2147901595921,518.0988407511799 M218.2147901595921,518.0988407511799 L195.9727157696716,523.8250718639508 M195.9727157696716,523.8250718639508 L173.4172822096564,529.0179152770767 M173.4172822096564,529.0179152770767 L150.55116610365863,533.6383572986156 M150.55116610365863,533.6383572986156 L129.70914974824757,537.2737544736126 M129.70914974824757,537.2737544736126 L113.38621857191879,539.7302990502195 M113.38621857191879,539.7302990502195 L96.9180382548692,541.8552182498545" stroke="black"  stroke-width="4"  fill="red"/>
<path d="M787.0506088054346,243.0652348036159 L745.6548158663816,271.5380888322177 M745.6548158663816,271.5380888322177 L704.8867554043018,299.35904160224004 M704.8867554043018,299.35904160224004 L588.8235292496748,375.51347488022157 M588.8235292496748,375.51347488022157 L537.2566786962042,406.9744614901259 M537.2566786962042,406.9744614901259 L497.40138815031855,429.95324996527654 M497.40138815031855,429.95324996527654 L459.4359972247661,450.62419342933447 M459.4359972247661,450.62419342933447 L427.86282612339534,466.8384356496431 M427.86282612339534,466.8384356496431 L397.93390725949064,481.3424426056074 M397.93390725949064,481.3424426056074 L367.3128602152798,495.26991934086266 M367.3128602152798,495.26991934086266 L339.149443416045,507.2334006372553 M339.149443416045,507.2334006372553 L313.30802011908554,517.4726443395082 M313.30802011908554,517.4726443395082 L286.9982592391511,527.1493984832573 M286.9982592391511,527.1493984832573 L260.22380315528255,536.1990325174053 M260.22380315528255,536.1990325174053 L232.99195117335302,544.5525546503281 M232.99195117335302,544.5525546503281 L208.1011534276765,551.4149973012702 M208.1011534276765,551.4149973012702 L185.39879552838102,557.0116595395592 M185.39879552838102,557.0116595395592 L162.42119604039559,562.0145636959862 M162.42119604039559,562.0145636959862 L139.17929508413442,566.378571127066 M139.17929508413442,566.378571127066 L118.04568420150679,569.7212282379658 M118.04568420150679,569.7212282379658 L107.73795064735725,571.1301636185593 M107.73795064735725,571.1301636185593 L97.38587893652277,572.3963012522923" stroke="black"  stroke-width="4"  fill="red"/>
<path d="M776.5977013953752,240.9784676268976 L750.4240222301568,258.3692123741405 M750.4240222301568,258.3692123741405 L721.2342935834582,278.2551890225287 M721.2342935834582,278.2551890225287 L575.9257201650714,377.19064591622384 M575.9257201650714,377.19064591622384 L529.2388881159548,406.5102916152633 M529.2388881159548,406.5102916152633 L489.1304806895652,430.16658609278875 M489.1304806895652,430.16658609278875 L458.2222554923367,447.37743363326945 M458.2222554923367,447.37743363326945 L423.54688037922097,465.6283407192009 M423.54688037922097,465.6283407192009 L390.58788513029606,481.9645151118343 M390.58788513029606,481.9645151118343 L362.4844229774214,495.1465812105838 M362.4844229774214,495.1465812105838 L331.0906670138963,509.09915082198484 M331.0906670138963,509.09915082198484 L298.0835833792387,522.940722921582 M298.0835833792387,522.940722921582 L264.38467653936596,536.2572639232426 M264.38467653936596,536.2572639232426 L230.03506771779863,549.0488969800354 M230.03506771779863,549.0488969800354 L195.08939800127106,561.320953464683 M195.08939800127106,561.320953464683 L159.61609705546766,573.0837776681263 M159.61609705546766,573.0837776681263 L128.0320714822284,583.0247568475532 M128.0320714822284,583.0247568475532 L96.1673592009023,592.597281108703" stroke="black"  stroke-width="4"  fill="red"/>
<path d="M758.6689633873708,248.13181237424521 L737.3772558708687,263.51456284660094 M737.3772558708687,263.51456284660094 L716.5429144907001,278.8646282002969 M716.5429144907001,278.8646282002969 L696.0586884711431,294.14784324788536 M696.0586884711431,294.14784324788536 L669.1189564846995,314.36683283317916 M669.1189564846995,314.36683283317916 L629.0742200246603,344.21807759598676 M629.0742200246603,344.21807759598676 L583.8503741825176,376.89667894753927 M583.8503741825176,376.89667894753927 L537.7368471421028,408.397644241747 M537.7368471421028,408.397644241747 L499.3452468864374,432.9311387413443 M499.3452468864374,432.9311387413443 L462.76721041391505,454.803596523764 M462.76721041391505,454.803596523764 L428.9089488125592,473.76964786748874 M428.9089488125592,473.76964786748874 L397.64390398041667,490.24905876932235 M397.64390398041667,490.24905876932235 L365.62707985948316,506.1721450347933 M365.62707985948316,506.1721450347933 L332.88320967952046,521.5499067315794 M332.88320967952046,521.5499067315794 L299.4618554706806,536.4015780615366 M299.4618554706806,536.4015780615366 L265.43747233348745,550.7546091632805 M265.43747233348745,550.7546091632805 L230.90940608280286,564.6446975243693 M230.90940608280286,564.6446975243693 L161.30184316301754,591.0588682472683 M161.30184316301754,591.0588682472683 L91.48588634981695,616.2673067473881" stroke="black"  stroke-width="4"  fill="red"/>
<path d="M671.8628754877119,208.49503847130467 L655.4506455545311,226.06282272401324 M655.4506455545311,226.06282272401324 L638.5395996351349,243.11267438085076 M638.5395996351349,243.11267438085076 L621.176445572478,259.6883656069334 M621.176445572478,259.6883656069334 L603.4021993399309,275.8289236250981 M603.4021993399309,275.8289236250981 L585.252189952233,291.56864096243066 M585.252189952233,291.56864096243066 L566.7560490431525,306.9370336240495 M566.7560490431525,306.9370336240495 L541.5965776423523,326.8927855129916 M541.5965776423523,326.8927855129916 L512.6569860726937,348.6621135161371 M512.6569860726937,348.6621135161371 L483.0739988348119,369.75040820402205 M483.0739988348119,369.75040820402205 L452.84991321830455,390.175646215902 M452.84991321830455,390.175646215902 L421.95825029166474,409.9316199498363 M421.95825029166474,409.9316199498363 L390.34377415882085,428.98795083232517 M390.34377415882085,428.98795083232517 L361.20387586404865,445.49583871034235 M361.20387586404865,445.49583871034235 L334.3528386163336,459.7844403557277 M334.3528386163336,459.7844403557277 L312.11851484753265,470.9266729183744 M312.11851484753265,470.9266729183744 L293.2241503081782,479.8915406756763 M293.2241503081782,479.8915406756763 L275.9099394872105,487.6922403756271 M275.9099394872105,487.6922403756271 L260.0574214049813,494.4814311247701 M260.0574214049813,494.4814311247701 L245.55659205695306,500.3927920545224 M245.55659205695306,500.3927920545224 L230.82049750306098,506.1048758674657 M230.82049750306098,506.1048758674657 L217.34502543710866,511.06625652260766 M217.34502543710866,511.06625652260766 L205.03524815159568,515.378851972253 M205.03524815159568,515.378851972253 L193.802035590567,519.1310216859281 M193.802035590567,519.1310216859281 L183.56173048400578,522.3991401291569 M183.56173048400578,522.3991401291569 L173.19299160552023,525.5603610649354 M173.19299160552023,525.5603610649354 L162.69098541078594,528.6108626755421 M162.69098541078594,528.6108626755421 L152.05075077900963,531.546739071849 M152.05075077900963,531.546739071849 L142.35212636172162,534.0877168064478 M142.35212636172162,534.0877168064478 L133.52099210806784,536.2899139267918 M133.52099210806784,536.2899139267918 L124.58983431768524,538.4096307056234 M124.58983431768524,538.4096307056234 L115.55589198604184,540.4444749587606 M115.55589198604184,540.4444749587606 L106.41610004927111,542.3921777909904 M106.41610004927111,542.3921777909904 L97.16749376142764,544.2503161378322 M97.16749376142764,544.2503161378322 L87.80704100738672,546.0164272411466 M87.80704100738672,546.0164272411466 L78.33155827560427,547.688066033839 M78.33155827560427,547.688066033839 L68.73792448993356,549.2626465091037 M68.73792448993356,549.2626465091037 L59.999882501217826,550.5947087255926 M59.999882501217826,550.5947087255926 L52.04964673935001,551.7229312502648 M52.04964673935001,551.7229312502648 L44.015958801991474,552.7828528118163 M44.015958801991474,552.7828528118163 L35.89715892513425,553.7729886859656 M35.89715892513425,553.7729886859656 L27.69132091885581,554.6918763828126 M27.69132091885581,554.6918763828126 L19.3966413865312,555.5380534222771 M19.3966413865312,555.5380534222771 L13.211925309441085,556.1154409536671 M13.211925309441085,556.1154409536671 L6.976940533645575,556.6517344754773" stroke="black"  stroke-width="4"  fill="red"/>
<path d="M623.4218273660861,183.73269325261185 L608.1387304356131,203.3926109835939 M608.1387304356131,203.3926109835939 L592.2052774334561,222.61546651246135 M592.2052774334561,222.61546651246135 L575.6555052938677,241.40220874239225 M575.6555052938677,241.40220874239225 L558.5190299812017,259.7533961834031 M558.5190299812017,259.7533961834031 L540.8210469481219,277.66921974350373 M540.8210469481219,277.66921974350373 L522.5823320454497,295.1495080820657 M522.5823320454497,295.1495080820657 L503.8192465036001,312.193687024764 M503.8192465036001,312.193687024764 L484.54375366848683,328.8008117373845 M484.54375366848683,328.8008117373845 L464.76335218106254,344.96958591583723 M464.76335218106254,344.96958591583723 L444.4811923293093,360.69824035471515 M444.4811923293093,360.69824035471515 L423.6959639554382,375.98471974581355 M423.6959639554382,375.98471974581355 L402.4019828118704,390.8264912629377 M402.4019828118704,390.8264912629377 L380.58913998844895,405.2206789308566 M380.58913998844895,405.2206789308566 L358.24294680402363,419.1639804739849 M358.24294680402363,419.1639804739849 L335.3444581438654,432.65275151336095 M335.3444581438654,432.65275151336095 L311.8704514730074,445.6828501621492 M311.8704514730074,445.6828501621492 L290.2289497861481,457.0141127092186 M290.2289497861481,457.0141127092186 L270.3147237627281,466.8885775023098 M270.3147237627281,466.8885775023098 L252.02193195702714,475.5110724508485 M252.02193195702714,475.5110724508485 L235.2458236936991,483.05520762843673 M235.2458236936991,483.05520762843673 L218.16128210362285,490.39291744964555 M218.16128210362285,490.39291744964555 L202.51104092115486,496.81896233828616 M202.51104092115486,496.81896233828616 L188.19537439738104,502.4571695883577 M188.19537439738104,502.4571695883577 L173.65360140950966,507.9568057112666 M173.65360140950966,507.9568057112666 L158.87788581403058,513.316824789345 M158.87788581403058,513.316824789345 L145.37296362370193,518.0206042482686 M145.37296362370193,518.0206042482686 L133.04563119408226,522.1559950484767 M133.04563119408226,522.1559950484767 L120.54976503116757,526.1978329122637 M120.54976503116757,526.1978329122637 L107.88044727444725,530.145603789983 M107.88044727444725,530.145603789983 L96.32560302995114,533.6176353139193 M96.32560302995114,533.6176353139193 L85.79961494005806,536.6764895515513 M85.79961494005806,536.6764895515513 L75.15073928218385,539.672486133705 M75.15073928218385,539.672486133705 L64.37607902515026,542.6053110697965 M64.37607902515026,542.6053110697965 L53.47277707169121,545.4745663866594 M53.47277707169121,545.4745663866594 L42.437817754354796,548.2799200092182 M42.437817754354796,548.2799200092182 L31.268179650091383,551.020999969023 M31.268179650091383,551.020999969023 L19.960667671089936,553.6974914055035 M19.960667671089936,553.6974914055035 L13.491687964941661,555.1850829529731 M13.491687964941661,555.1850829529731 L6.976940533645575,556.6517344754773" stroke="black"  stroke-width="4"  fill="red"/></svg>